<mxfile host="app.diagrams.net" modified="2024-06-04T12:22:13.297Z" agent="Mozilla/5.0 (X11; Linux x86_64) AppleWebKit/537.36 (KHTML, like Gecko) Chrome/125.0.0.0 Safari/537.36" version="24.4.8" etag="7mWsAI3lVXsMCPMMV18y" type="github">
  <diagram name="Page-1" id="zSX1sVo3zutiZEAd281k">
    <mxGraphModel>
      <root>
        <mxCell id="0" />
        <mxCell id="1" parent="0" />
      </root>
    </mxGraphModel>
  </diagram>
</mxfile>
